<?xml version="1.0" encoding="UTF-8"?>
<svg xmlns="http://www.w3.org/2000/svg" viewBox="0 0 512 512" width="512" height="512"><g id="Outline"><path d="M286.69,336.828l7.09,14.344A85.712,85.712,0,0,1,256,360a84.666,84.666,0,0,1-35.313-7.658l6.626-14.563A68.793,68.793,0,0,0,256,344,69.608,69.608,0,0,0,286.69,336.828ZM256,224.058a48.415,48.415,0,0,0,28.733-9.609l-9.466-12.9a32.031,32.031,0,0,1-38.534,0l-9.466,12.9A48.415,48.415,0,0,0,256,224.058ZM216,184a16,16,0,1,0-16-16A16.019,16.019,0,0,0,216,184Zm80,0a16,16,0,1,0-16-16A16.019,16.019,0,0,0,296,184ZM486.2,392.836A68,68,0,0,1,428,496H84A68,68,0,0,1,29.6,387.2l46.44-61.92,12.8,9.6L42.4,396.8A52,52,0,0,0,84,480h36V432H88a8,8,0,0,1-6.247-13L144,341.193V288.582A56.311,56.311,0,0,0,107.2,310.4L96.881,324.16l-12.8-9.6L94.4,300.8a72.4,72.4,0,0,1,50.326-28.418,40.028,40.028,0,0,1,28.958-31.037A95.335,95.335,0,0,1,161.341,208H160a32,32,0,0,1,0-64v-8h-8a8,8,0,0,1-8-8V104a87.855,87.855,0,0,1,31.4-67.382l10.3,12.246A72.379,72.379,0,0,0,175.658,59.2,305.167,305.167,0,0,0,232.4,41.7a7.8,7.8,0,0,1,.788-.3L235.7,49.15l3.182,7.172c-.36.16-35.124,15.437-73.73,20.9a71.78,71.78,0,0,0-4.184,14.966c2.052-.179,4.092-.378,6.1-.613,6.9-.788,13.849-1.929,20.681-3.395A218.076,218.076,0,0,0,238.393,70.6a142.592,142.592,0,0,0,18.56-10.736L266.4,72.785c-1.175.861-29.318,21.194-75.292,31.037-7.334,1.574-14.8,2.8-22.2,3.646-2.922.341-5.9.623-8.908.853V120h22.312A181.928,181.928,0,0,0,280,91.66V49.384A27.061,27.061,0,0,0,254.7,32H232a71.947,71.947,0,0,0-35.994,9.628l-8.012-13.85A87.972,87.972,0,0,1,232,16h22.7a43.032,43.032,0,0,1,38.631,24H296a56.063,56.063,0,0,1,56,56v48a32,32,0,0,1,0,64h-1.341a95.336,95.336,0,0,1-12.348,33.354,40.123,40.123,0,0,1,28.952,31.026A72.4,72.4,0,0,1,417.6,300.8L477,380l-12.8,9.6-59.4-79.2A56.311,56.311,0,0,0,368,288.582v52.611L430.247,419A8,8,0,0,1,424,432H392v48h36a52,52,0,0,0,44.508-78.891ZM352,192a16,16,0,0,0,0-32ZM160,160a16,16,0,0,0,0,32Zm168,96h-.512A96.8,96.8,0,0,1,312,269.927V272h38.624A24.039,24.039,0,0,0,328,256Zm-8,32V416h32V288ZM296,94.426a93.031,93.031,0,0,0,40,44.886V122.473c-14.855-21.238-36.223-35.673-36.443-35.821l8.881-13.308A174.7,174.7,0,0,1,336,97.251V96a40.045,40.045,0,0,0-40-40ZM176,140.053a86.184,86.184,0,0,0,7.69-4.066c-.46,0-.919.013-1.378.013H176ZM176,192a80,80,0,0,0,160,0V157.264a109.156,109.156,0,0,1-51.483-49.6,197.669,197.669,0,0,1-72.107,26.051,102.749,102.749,0,0,1-34.658,23l-1.752.7Zm80,96a95.43,95.43,0,0,1-39.981-8.732,40.785,40.785,0,0,0,79.963,0A95.419,95.419,0,0,1,256,288ZM160,416h32V288H160Zm-16-22.9V366.806L104.645,416h17.588l1.118-3.352A30.141,30.141,0,0,1,144,393.1ZM200,440a8.009,8.009,0,0,0-8-8H152a8,8,0,0,1-8-8V410.463a14.18,14.18,0,0,0-5.47,7.246L136,425.3V480h56a8.009,8.009,0,0,0,8-8Zm0-170.073A96.8,96.8,0,0,1,184.512,256H184a24.026,24.026,0,0,0-22.64,16H200Zm104,31.6a56.738,56.738,0,0,1-96-.029V422.131A23.943,23.943,0,0,1,216,440v32a23.889,23.889,0,0,1-1.376,8h82.752A23.889,23.889,0,0,1,296,472V440a23.943,23.943,0,0,1,8-17.869ZM376,425.3l-2.53-7.589a14.18,14.18,0,0,0-5.47-7.246V424a8,8,0,0,1-8,8H320a8.009,8.009,0,0,0-8,8v32a8.009,8.009,0,0,0,8,8h56Zm13.767-9.3h17.588L368,366.806V393.1a30.141,30.141,0,0,1,20.649,19.553Z"/></g></svg>
