<svg height='300px' width='300px'  fill="#FFF200" xmlns="http://www.w3.org/2000/svg" xmlns:xlink="http://www.w3.org/1999/xlink" version="1.1" x="0px" y="0px" viewBox="0 0 100 100" style="enable-background:new 0 0 100 100;" xml:space="preserve"><g><polygon points="2.8,40.2 50,5.9 97.2,40.2 97.2,53.5 99.6,53.5 99.6,38.9 50.7,3.5 50,2.9 0.4,38.9 0.4,52.6 2.8,52.6  "></polygon><path d="M36.9,62l1,3.2C39.6,70.5,44.5,74,50,74s10.4-3.5,12.1-8.8l1-3.2c0.3-0.8,0.4-1.5,0.5-2.2c0.1-0.6,0.1-1.1,0.1-1.7   c0-0.8-0.1-1.5-0.2-2.3c-1.1-6.6-6.8-11.4-13.5-11.4c-6.7,0-12.4,4.8-13.5,11.4c-0.1,0.8-0.2,1.5-0.2,2.3c0,0.5,0,1.1,0.1,1.7v0   C36.4,60.5,36.6,61.2,36.9,62z M38.8,56.2c0.9-5.5,5.6-9.4,11.2-9.4s10.3,4,11.2,9.4c0.1,0.6,0.2,1.3,0.2,1.9c0,0.5,0,0.9-0.1,1.4   c-0.1,0.5-0.2,1.1-0.4,1.7l-1,3.2c-1.4,4.3-5.3,7.1-9.8,7.1s-8.4-2.9-9.8-7.1l-1-3.2c-0.2-0.6-0.3-1.2-0.4-1.7   c-0.1-0.5-0.1-0.9-0.1-1.4C38.7,57.5,38.7,56.9,38.8,56.2z"></path><path d="M82.4,53.5c-5.7,0-10.5,4.1-11.5,9.7c-0.1,0.6-0.2,1.3-0.2,1.9c0,0.5,0,0.9,0.1,1.4c0.1,0.6,0.2,1.2,0.4,1.9l0.9,2.7   c1.4,4.5,5.6,7.4,10.2,7.4s8.8-3,10.2-7.4l0.9-2.7c0.2-0.7,0.4-1.3,0.4-1.9c0.1-0.5,0.1-0.9,0.1-1.4c0-0.6-0.1-1.3-0.2-1.9   C93,57.6,88.1,53.5,82.4,53.5z M91.7,65.2c0,0.4,0,0.7-0.1,1.1c-0.1,0.4-0.2,0.9-0.3,1.4l-0.9,2.7c-1.1,3.5-4.3,5.8-8,5.8   s-6.8-2.3-8-5.8l-0.9-2.7c-0.2-0.5-0.3-1-0.3-1.4v0c0-0.4-0.1-0.7-0.1-1.1c0-0.5,0-1,0.1-1.5c0.7-4.5,4.6-7.7,9.1-7.7   s8.4,3.2,9.1,7.7C91.6,64.1,91.7,64.7,91.7,65.2z"></path><path d="M17.6,53.5c-5.7,0-10.5,4.1-11.5,9.7c-0.1,0.6-0.2,1.3-0.2,1.9c0,0.5,0,0.9,0.1,1.4c0.1,0.6,0.2,1.2,0.4,1.9l0.9,2.7   c1.4,4.5,5.6,7.4,10.2,7.4s8.8-3,10.2-7.4l0.9-2.7c0.2-0.7,0.4-1.3,0.4-1.9c0.1-0.5,0.1-0.9,0.1-1.4c0-0.6-0.1-1.3-0.2-1.9   C28.1,57.6,23.3,53.5,17.6,53.5z M26.8,65.2c0,0.4,0,0.7-0.1,1.1v0c-0.1,0.4-0.2,0.9-0.3,1.4l-0.9,2.7c-1.1,3.5-4.3,5.8-8,5.8   s-6.8-2.3-8-5.8l-0.9-2.7c-0.2-0.5-0.3-1-0.3-1.4c0-0.4-0.1-0.7-0.1-1.1c0-0.5,0-1,0.1-1.5c0.7-4.5,4.6-7.7,9.1-7.7   c4.5,0,8.4,3.2,9.1,7.7C26.7,64.1,26.8,64.7,26.8,65.2z"></path><path d="M93.3,79.1l-4.7-0.8l-6.2,6.9l-6.2-6.9l-4.7,0.8l0.4,2.4l3.4-0.6l7.1,7.9l7.1-7.9l3.4,0.6c2.5,0.4,4.3,2.6,4.3,5.1v8.1   H70.4V83.8c0-4.3-3.1-8-7.3-8.7l-5.5-0.9L50,82.6l-7.6-8.4L37,75.1c-4.2,0.7-7.3,4.4-7.3,8.7v10.8H2.8v-8.1c0-2.5,1.8-4.6,4.3-5.1   l3.4-0.6l7.1,7.9l7.1-7.9l3.4,0.6l0.4-2.4l-4.7-0.8l-6.2,6.9l-6.2-6.9l-4.7,0.8c-3.6,0.6-6.3,3.7-6.3,7.4v10.5h99.2V86.6   C99.6,82.9,97,79.8,93.3,79.1z M32,83.8c0-3.1,2.2-5.8,5.3-6.3l4.2-0.7l8.5,9.4l8.5-9.4l4.2,0.7c3.1,0.5,5.3,3.2,5.3,6.3v10.8H32   V83.8z"></path></g></svg>