<svg id="Layer_1" enable-background="new 0 0 512 512" height="512" viewBox="0 0 512 512" width="512" xmlns="http://www.w3.org/2000/svg"><path d="m153.6 278.027v-98.891l8.235 8.235c18.997 18.997 51.499 5.536 51.499-21.333 0-4.011-.789-7.925-2.293-11.552-3.191-7.695.272-2.97-91.573-94.816l-85.035 85.035c-5.653 5.653-8.832 13.323-8.832 21.333 0 26.845 32.476 40.356 51.499 21.333l8.235-8.235v98.891c-49.346 14.688-85.335 60.384-85.335 114.506 0 65.984 53.483 119.467 119.467 119.467s119.467-53.483 119.467-119.467c-.001-54.122-35.99-99.818-85.334-114.506zm-34.133 165.706c-28.277 0-51.2-22.923-51.2-51.2s22.923-51.2 51.2-51.2 51.2 22.923 51.2 51.2-22.923 51.2-51.2 51.2z" fill="#6994ff"/><path d="m426.667 233.973c49.344-14.688 85.333-60.384 85.333-114.506 0-65.984-53.483-119.467-119.467-119.467s-119.466 53.483-119.466 119.467c0 54.123 35.989 99.819 85.333 114.507v81.76h-68.267v68.266h68.267v68.267h68.267v-68.267h68.267v-68.267h-68.267zm-34.134-63.306c-28.277 0-51.2-22.923-51.2-51.2s22.923-51.2 51.2-51.2 51.2 22.923 51.2 51.2-22.922 51.2-51.2 51.2z" fill="#fe929f"/></svg>