<?xml version="1.0" encoding="iso-8859-1"?>
<!-- Generator: Adobe Illustrator 19.0.0, SVG Export Plug-In . SVG Version: 6.00 Build 0)  -->
<svg version="1.1" id="Layer_1" xmlns="http://www.w3.org/2000/svg" xmlns:xlink="http://www.w3.org/1999/xlink" x="0px" y="0px"
	 viewBox="0 0 512 512" style="enable-background:new 0 0 512 512;" xml:space="preserve">
<g>
	<path style="fill:#C20C3F;" d="M495.368,99.538c-25.195-30.309-147.125-55.941-239.367-55.941S41.829,69.228,16.634,99.537
		c-18.822,22.644-16.548,77.202-16.548,77.202s29.069,3.484,59.463,3.484s59.463-3.484,59.463-3.484v-47.431h273.977v47.431
		c0,0,29.069,3.484,59.463,3.484c30.393,0,59.463-3.484,59.463-3.484S514.19,122.182,495.368,99.538z"/>
	<polygon style="fill:#C20C3F;" points="470.608,389.063 470.608,459.867 41.393,459.867 41.393,389.063 256.001,354.93 	"/>
</g>
<path style="fill:#FF385C;" d="M433.847,217.918l36.762,171.145H41.393l36.762-171.145l78.837-15.383v-93.787
	c0-3.277,2.651-5.939,5.928-5.939h22.426c3.277,0,5.928,2.662,5.928,5.939v48.276h129.456v-48.276c0-3.277,2.651-5.939,5.928-5.939
	h22.426c3.277,0,5.928,2.662,5.928,5.939v93.787L433.847,217.918z"/>
<path style="fill:#750C20;" d="M470.12,468.402H41.881c-4.714,0-8.533-3.821-8.533-8.533s3.82-8.533,8.533-8.533h428.24
	c4.714,0,8.533,3.821,8.533,8.533S474.834,468.402,470.12,468.402z"/>
<g>
	<path style="fill:#FFFFFF;" d="M210.347,328.226h-12.231c-4.714,0-8.533-3.821-8.533-8.533s3.82-8.533,8.533-8.533h12.231
		c4.714,0,8.533,3.821,8.533,8.533S215.061,328.226,210.347,328.226z"/>
	<path style="fill:#FFFFFF;" d="M313.885,328.226h-12.231c-4.714,0-8.533-3.821-8.533-8.533s3.82-8.533,8.533-8.533h12.231
		c4.714,0,8.533,3.821,8.533,8.533S318.599,328.226,313.885,328.226z"/>
	<path style="fill:#FFFFFF;" d="M263.35,328.226h-12.232c-4.714,0-8.533-3.821-8.533-8.533s3.82-8.533,8.533-8.533h12.232
		c4.714,0,8.533,3.821,8.533,8.533S268.064,328.226,263.35,328.226z"/>
	<path style="fill:#FFFFFF;" d="M210.347,281.577h-12.231c-4.714,0-8.533-3.821-8.533-8.533s3.82-8.533,8.533-8.533h12.231
		c4.714,0,8.533,3.821,8.533,8.533S215.061,281.577,210.347,281.577z"/>
	<path style="fill:#FFFFFF;" d="M313.885,281.577h-12.231c-4.714,0-8.533-3.821-8.533-8.533s3.82-8.533,8.533-8.533h12.231
		c4.714,0,8.533,3.821,8.533,8.533S318.599,281.577,313.885,281.577z"/>
	<path style="fill:#FFFFFF;" d="M263.35,281.577h-12.232c-4.714,0-8.533-3.821-8.533-8.533s3.82-8.533,8.533-8.533h12.232
		c4.714,0,8.533,3.821,8.533,8.533S268.064,281.577,263.35,281.577z"/>
	<path style="fill:#FFFFFF;" d="M210.347,234.928h-12.231c-4.714,0-8.533-3.821-8.533-8.533s3.82-8.533,8.533-8.533h12.231
		c4.714,0,8.533,3.821,8.533,8.533S215.061,234.928,210.347,234.928z"/>
	<path style="fill:#FFFFFF;" d="M313.885,234.928h-12.231c-4.714,0-8.533-3.821-8.533-8.533s3.82-8.533,8.533-8.533h12.231
		c4.714,0,8.533,3.821,8.533,8.533S318.599,234.928,313.885,234.928z"/>
	<path style="fill:#FFFFFF;" d="M263.35,234.928h-12.232c-4.714,0-8.533-3.821-8.533-8.533s3.82-8.533,8.533-8.533h12.232
		c4.714,0,8.533,3.821,8.533,8.533S268.064,234.928,263.35,234.928z"/>
</g>
<g>
</g>
<g>
</g>
<g>
</g>
<g>
</g>
<g>
</g>
<g>
</g>
<g>
</g>
<g>
</g>
<g>
</g>
<g>
</g>
<g>
</g>
<g>
</g>
<g>
</g>
<g>
</g>
<g>
</g>
</svg>
