<svg id="Capa_1" enable-background="new 0 0 493.997 493.997" height="512" viewBox="0 0 493.997 493.997" width="512" xmlns="http://www.w3.org/2000/svg"><g><path d="m306.081 8.081-78.123 12.073-111.867 64.897-50.849 186.84 103.256 129.078 96.227 57.674 31.597-18.927 8.454-9.96c92.769-25.343 160.965-110.208 160.965-211.014 0-100.334-67.555-184.882-159.66-210.661z" fill="#ee6161"/><path d="m285.305 436.497c-94.041-25.065-163.162-111.205-162.254-213.353.969-109.142 81.03-198.553 185.689-214.293-19.582-5.751-40.298-8.851-61.741-8.851-120.382 0-217.665 96.377-218.734 216.755-.907 102.148 68.214 188.287 162.255 213.352l52.447 61.792c2.374 2.797 6.69 2.797 9.064 0l44.291-52.183z" fill="#e94444"/><circle cx="246.999" cy="218.742" fill="#f9f7f8" r="154.674"/><path d="m143.847 218.742c0-76.646 55.779-140.267 128.939-152.534-8.379-1.405-17.009-2.14-25.788-2.14-85.424 0-154.674 69.25-154.674 154.674s69.25 154.674 154.674 154.674c8.778 0 17.408-.735 25.788-2.14-73.16-12.266-128.939-75.888-128.939-152.534z" fill="#efedef"/><g><path d="m321.826 285.655v-106.647l-74.827-58.284-74.827 55.794v109.137z" fill="#fde6bf"/></g><g><path d="m246.999 120.724-51.063 38.075v19.868h-23.763v106.989h31.103v-74.14c0-4.746 2.141-9.238 5.826-12.227l33.618-27.268c2.494-2.023 6.065-2.023 8.56 0l64.001 51.912c2.003 1.625 4.21 2.958 6.546 3.993v-48.916z" fill="#fdd79b"/><path d="m327.882 208.402-80.883-65.606-80.884 65.606c-3.906 3.168-9.641 2.57-12.809-1.336l-7.425-9.154c-3.168-3.906-2.57-9.641 1.336-12.809l90.333-73.27c5.507-4.468 13.391-4.468 18.898 0l90.332 73.27c3.906 3.168 4.504 8.903 1.336 12.809l-7.425 9.154c-3.168 3.906-8.903 4.504-12.809 1.336z" fill="#d77f4a"/></g><path d="m272.623 285.641v-13.624c0-14.152-11.472-25.624-25.624-25.624-14.152 0-25.624 11.472-25.624 25.624v13.624z" fill="#fccd7f"/><g><path d="m272.623 209.989h-51.248c-4.143 0-7.5-3.357-7.5-7.5s3.357-7.5 7.5-7.5h51.248c4.143 0 7.5 3.357 7.5 7.5s-3.358 7.5-7.5 7.5z" fill="#fccd7f"/></g><g><path d="m331.615 293.155h-169.196c-4.143 0-7.5-3.357-7.5-7.5s3.357-7.5 7.5-7.5h169.196c4.143 0 7.5 3.357 7.5 7.5s-3.357 7.5-7.5 7.5z" fill="#e5e1e5"/></g></g></svg>